<?xml version="1.0" standalone="no"?>
<!DOCTYPE svg PUBLIC "-//W3C//DTD SVG 20010904//EN"
 "http://www.w3.org/TR/2001/REC-SVG-20010904/DTD/svg10.dtd">
<svg version="1.0" xmlns="http://www.w3.org/2000/svg" preserveAspectRatio="xMidYMid meet">
<g transform="translate(0.000000,190.000000) scale(0.100000,-0.100000)">
<path d="M820 1800 c-11 -11 -20 -28 -20 -38 0 -10 26 -59 58 -110 l57 -92
149 2 149 3 53 84 c57 90 66 127 36 154 -28 26 -54 21 -106 -20 l-47 -36 -30
36 c-37 45 -70 48 -104 11 -14 -15 -25 -31 -25 -35 0 -16 -17 -9 -61 26 -50
40 -80 44 -109 15z"/>
<path d="M835 1456 c-71 -47 -170 -157 -205 -225 -100 -199 -34 -426 151 -513
159 -76 438 -76 596 -2 186 88 253 316 152 515 -34 69 -140 185 -208 228 -48
31 -131 44 -131 20 0 -5 23 -45 50 -88 55 -85 57 -93 36 -111 -23 -19 -41 -2
-109 105 -52 82 -68 100 -88 100 -19 0 -29 -11 -52 -58 -23 -48 -32 -58 -50
-55 -23 3 -27 31 -12 91 7 26 6 27 -36 27 -34 0 -56 -8 -94 -34z m285 -181 c0
-20 5 -25 26 -25 25 0 84 -48 84 -68 0 -5 -12 -13 -26 -16 -20 -5 -32 -2 -46
13 -31 34 -39 25 -36 -40 l3 -61 40 -14 c53 -18 75 -46 75 -99 0 -54 -28 -91
-81 -105 -28 -8 -39 -16 -39 -30 0 -16 -7 -20 -30 -20 -23 0 -30 5 -30 19 0
14 -11 22 -42 30 -60 15 -71 24 -63 50 5 16 12 20 23 16 10 -4 32 -9 50 -12
l32 -6 0 65 c0 65 0 66 -30 72 -49 9 -80 48 -80 99 0 54 28 93 73 105 22 6 33
15 35 30 3 17 10 22 33 22 24 0 29 -4 29 -25z"/>
<path d="M1021 1186 c-18 -22 -9 -67 17 -84 22 -14 22 -14 22 42 0 58 -14 73
-39 42z"/>
<path d="M1120 965 c0 -60 13 -70 43 -37 22 25 21 48 -3 72 -32 32 -40 24 -40
-35z"/>
<path d="M114 450 c-12 -5 -24 -17 -27 -29 -6 -23 18 -61 38 -61 21 0 45 -29
39 -45 -9 -23 -50 -18 -61 7 -5 12 -12 17 -16 12 -10 -17 22 -54 48 -54 28 0
55 34 48 61 -3 10 -8 19 -12 19 -20 0 -70 41 -65 54 9 24 34 27 51 6 23 -26
34 -25 24 2 -9 26 -39 38 -67 28z"/>
<path d="M796 382 l-38 -77 -36 73 c-20 39 -40 72 -44 72 -4 0 -8 -38 -8 -85
0 -50 4 -85 10 -85 6 0 10 26 10 58 l1 57 30 -57 c16 -32 33 -58 37 -58 4 0
22 28 39 63 l32 62 0 -62 c1 -35 5 -63 11 -63 12 0 14 166 2 174 -5 3 -25 -30
-46 -72z"/>
<path d="M990 450 c0 -5 9 -10 20 -10 18 0 20 -7 20 -80 0 -103 18 -105 22 -2
3 71 5 77 26 80 12 2 20 8 17 13 -8 12 -105 12 -105 -1z"/>
<path d="M1390 370 c0 -53 4 -90 10 -90 6 0 10 26 11 58 l1 57 25 -57 c15 -32
31 -58 38 -58 7 0 23 26 38 58 l25 57 1 -57 c1 -32 6 -58 11 -58 6 0 10 37 10
91 0 49 -3 88 -8 85 -4 -2 -23 -36 -42 -76 l-34 -71 -38 76 c-21 41 -40 75
-43 75 -3 0 -5 -40 -5 -90z"/>
<path d="M220 365 c0 -87 16 -119 22 -42 2 35 7 43 25 45 23 3 26 -3 36 -68 3
-14 5 -5 6 21 1 50 -11 69 -46 69 -19 0 -23 5 -23 30 0 17 -4 30 -10 30 -6 0
-10 -35 -10 -85z"/>
<path d="M1120 365 c0 -87 16 -119 22 -43 2 33 8 44 22 46 24 5 36 -14 36 -55
0 -18 5 -33 10 -33 16 0 12 77 -6 94 -8 9 -26 16 -40 16 -20 0 -24 5 -24 30 0
17 -4 30 -10 30 -6 0 -10 -35 -10 -85z"/>
<path d="M357 372 c-9 -10 -17 -28 -17 -40 0 -52 76 -72 106 -28 36 56 -45
117 -89 68z m73 -23 c15 -27 -5 -51 -39 -47 -26 3 -38 26 -27 54 8 22 54 17
66 -7z"/>
<path d="M476 368 c14 -47 35 -88 43 -88 4 0 15 17 23 38 l15 37 16 -37 c9
-21 20 -38 25 -38 10 0 46 99 38 107 -3 3 -13 -11 -23 -33 l-16 -39 -16 37
c-9 21 -19 38 -23 38 -4 0 -15 -17 -24 -37 l-17 -38 -15 38 c-16 39 -38 52
-26 15z"/>
<path d="M892 378 c-17 -17 -15 -73 2 -87 18 -15 78 -11 83 5 2 7 -10 11 -33
10 -21 -1 -39 4 -41 12 -3 8 9 12 41 12 38 0 46 3 46 18 0 27 -20 42 -55 42
-17 0 -36 -5 -43 -12z m73 -18 c4 -6 -8 -10 -30 -10 -22 0 -34 4 -30 10 3 6
17 10 30 10 13 0 27 -4 30 -10z"/>
<path d="M1257 372 c-22 -25 -21 -55 2 -76 21 -19 72 -18 78 1 3 8 -6 10 -30
6 -26 -4 -36 -1 -40 11 -5 13 2 16 43 16 54 0 58 4 34 38 -19 27 -64 29 -87 4z
m68 -12 c4 -6 -7 -10 -25 -10 -18 0 -29 4 -25 10 3 6 15 10 25 10 10 0 22 -4
25 -10z"/>
<path d="M1603 364 c-15 -24 -15 -29 -2 -53 28 -50 109 -34 109 23 0 55 -76
76 -107 30z m83 -20 c8 -31 -6 -47 -36 -42 -53 7 -47 68 6 68 17 0 25 -7 30
-26z"/>
<path d="M1740 336 c0 -31 5 -56 10 -56 6 0 10 20 10 45 0 38 3 45 20 45 17 0
20 -7 20 -45 0 -25 5 -45 11 -45 6 0 9 21 7 53 l-3 52 -37 3 -38 3 0 -55z"/>
<path d="M1866 374 c-19 -19 -21 -54 -3 -78 9 -12 23 -17 47 -14 47 4 51 26 4
24 -21 -1 -39 4 -41 12 -3 8 9 12 41 12 38 0 46 3 46 18 0 41 -63 58 -94 26z
m69 -14 c4 -6 -8 -10 -30 -10 -22 0 -34 4 -30 10 3 6 17 10 30 10 13 0 27 -4
30 -10z"/>
<path d="M1980 385 c0 -2 7 -23 16 -45 11 -26 14 -52 10 -75 -11 -59 8 -39 38
40 30 78 29 118 -1 49 l-16 -39 -15 38 c-8 20 -19 37 -23 37 -5 0 -9 -2 -9 -5z"/>
<path d="M978 113 c7 -3 16 -2 19 1 4 3 -2 6 -13 5 -11 0 -14 -3 -6 -6z"/>
</g>
</svg>
